<svg width="78" height="75" viewBox="0 0 78 75" fill="none" xmlns="http://www.w3.org/2000/svg">
<path d="M68.88 57.8492C68.7972 57.8492 68.7179 57.8323 68.6424 57.8H65.3832C65.052 57.8 64.7832 57.5312 64.7832 57.2C64.7832 56.8688 65.052 56.6 65.3832 56.6H68.802C73.8096 53.6216 76.8 48.4627 76.8 42.8C76.8 37.1372 73.8096 31.9784 68.802 29H51.1968C46.1892 31.9784 43.2 37.1372 43.2 42.8C43.2 48.4627 46.1892 53.6216 51.198 56.6H58.1832C58.5144 56.6 58.7832 56.8688 58.7832 57.2C58.7832 57.5312 58.5144 57.8 58.1832 57.8H51.0336C50.9292 57.8 50.8224 57.7712 50.7324 57.7183C48.12 56.2004 45.9336 54.0488 44.4072 51.4963C43.6332 50.2027 43.0344 48.8167 42.63 47.3779C42.2124 45.8936 42 44.3528 42 42.8C42 41.2472 42.2124 39.7064 42.63 38.222C43.0344 36.7832 43.6332 35.3972 44.4072 34.1024C45.9336 31.5512 48.1212 29.3996 50.7324 27.8816C50.8224 27.8288 50.9292 27.8 51.0336 27.8H68.6424C68.8141 27.7256 69.0168 27.7376 69.1789 27.83C71.8153 29.3432 74.0232 31.4972 75.5664 34.0604C76.3489 35.3588 76.9537 36.7508 77.3628 38.198C77.7852 39.6896 78 41.2388 78 42.8C78 44.3612 77.7852 45.9104 77.3627 47.402C76.9536 48.8493 76.3488 50.2412 75.5663 51.5396C74.0231 54.1027 71.8151 56.2568 69.1788 57.77C69.0875 57.8216 68.9844 57.8492 68.88 57.8492ZM61.7831 57.8C61.4519 57.8 61.1831 57.5312 61.1831 57.2C61.1831 56.8688 61.4519 56.6 61.7831 56.6C62.1144 56.6 62.3831 56.8688 62.3831 57.2C62.3831 57.5312 62.1144 57.8 61.7831 57.8Z" fill="#8E0000"/>
<path d="M65.2044 57.8492C65.124 57.8492 65.046 57.8336 64.9727 57.8023L64.9679 57.7999H54.7439C54.5867 57.7999 54.4331 57.7363 54.3215 57.6259C52.7723 56.0827 51.4835 53.9263 50.5943 51.3883C50.1455 50.1079 49.7987 48.7363 49.5647 47.3119C49.3235 45.8515 49.2011 44.3335 49.1999 42.7999C49.2011 41.2663 49.3235 39.7483 49.5647 38.2879C49.7987 36.8635 50.1455 35.4919 50.5943 34.2115C51.4835 31.6747 52.7723 29.5171 54.3215 27.9739C54.4319 27.8635 54.5867 27.7999 54.7439 27.7999L64.9727 27.7975C65.1923 27.7051 65.4552 27.7555 65.6255 27.9223C67.1891 29.4595 68.4911 31.6207 69.3911 34.1683C69.8447 35.4535 70.1939 36.8311 70.4315 38.2627C70.674 39.7315 70.7988 41.2579 70.7999 42.7999C70.7999 43.0315 70.7974 43.2631 70.7915 43.4887C70.7831 43.8175 70.5059 44.0827 70.1771 44.0743C69.8496 44.0671 69.5927 43.8031 69.5915 43.4755C69.5915 43.4707 69.5915 43.4659 69.5915 43.4599C69.5975 43.2403 69.5999 43.0183 69.5999 42.7999C69.6059 37.2307 67.8455 31.9435 65.0051 28.9999H54.9947C52.1543 31.9435 50.3939 37.2307 50.3999 42.7999C50.3939 48.3691 52.1543 53.6574 54.9947 56.5999H65.0039C66.4703 55.0771 67.6703 52.9255 68.4766 50.3778C68.5558 50.1282 68.7862 49.9591 69.0478 49.9591C69.1103 49.9591 69.1714 49.9687 69.2303 49.9878C69.5447 50.0874 69.7199 50.4258 69.6203 50.7403C68.7107 53.6082 67.3295 56.0071 65.6255 57.6775C65.5127 57.7879 65.3627 57.8492 65.2044 57.8492ZM69.87 47.6575C69.8375 47.6575 69.8064 47.6551 69.7752 47.6503C69.6168 47.6251 69.4776 47.5399 69.384 47.4103C69.2892 47.2807 69.2519 47.1223 69.2771 46.9639C69.3227 46.6711 69.5723 46.4574 69.8688 46.4574C69.9 46.4574 69.9323 46.4599 69.9636 46.4647C70.29 46.5174 70.5131 46.8247 70.4615 47.1522C70.4148 47.4452 70.1664 47.6575 69.87 47.6575Z" fill="#8E0000"/>
<path d="M68.88 29H50.88C50.7216 29 50.5668 28.9364 50.4552 28.8248C50.3436 28.7132 50.28 28.5584 50.28 28.4V22.4C50.28 22.2416 50.3436 22.0868 50.4552 21.9752C50.5668 21.8636 50.7216 21.8 50.88 21.8H68.88C69.0382 21.8 69.192 21.8636 69.3036 21.9752C69.4164 22.088 69.48 22.2416 69.48 22.4V28.4C69.48 28.5596 69.4174 28.7108 69.3036 28.8248C69.1908 28.9376 69.0408 29 68.88 29ZM51.48 27.8H68.28V23H51.48V27.8Z" fill="#8E0000"/>
<path d="M68.88 63.8H50.88C50.7216 63.8 50.568 63.7364 50.4564 63.6236C50.3436 63.5131 50.28 63.3583 50.28 63.2V57.2C50.28 57.0416 50.3436 56.8879 50.4552 56.7752C50.568 56.6636 50.7228 56.6 50.88 56.6H68.88C69.0382 56.6 69.192 56.6636 69.3048 56.7764C69.4164 56.888 69.48 57.0416 69.48 57.2V63.2C69.48 63.3596 69.4175 63.5108 69.3048 63.6236C69.1908 63.7375 69.0408 63.8 68.88 63.8ZM51.48 62.6H68.28V57.8H51.48V62.6Z" fill="#8E0000"/>
<path d="M61.68 68.6C61.3488 68.6 61.08 68.3312 61.08 68V63.2C61.08 62.8688 61.3488 62.6 61.68 62.6C62.0112 62.6 62.28 62.8688 62.28 63.2V68C62.28 68.3312 62.0112 68.6 61.68 68.6Z" fill="#8E0000"/>
<path d="M58.08 68.6C57.7488 68.6 57.48 68.3312 57.48 68V63.2C57.48 62.8688 57.7488 62.6 58.08 62.6C58.4112 62.6 58.68 62.8688 58.68 63.2V68C58.68 68.3312 58.4112 68.6 58.08 68.6Z" fill="#8E0000"/>
<path d="M64.08 37.4H43.68C43.3488 37.4 43.08 37.1312 43.08 36.8C43.08 36.4688 43.3488 36.2 43.68 36.2H64.08C64.4112 36.2 64.68 36.4688 64.68 36.8C64.68 37.1312 64.4112 37.4 64.08 37.4Z" fill="#8E0000"/>
<path d="M77.4 43.4H56.88C56.5488 43.4 56.28 43.1312 56.28 42.8C56.28 42.4688 56.5488 42.2 56.88 42.2H77.4C77.7312 42.2 78 42.4688 78 42.8C78 43.1312 77.7312 43.4 77.4 43.4Z" fill="#8E0000"/>
<path d="M61.68 49.4H43.68C43.3488 49.4 43.08 49.1312 43.08 48.8C43.08 48.4688 43.3488 48.2 43.68 48.2H61.68C62.0112 48.2 62.28 48.4688 62.28 48.8C62.28 49.1312 62.0112 49.4 61.68 49.4Z" fill="#8E0000"/>
<path d="M73.68 53H62.88C62.5488 53 62.28 52.7312 62.28 52.4C62.28 52.0688 62.5488 51.8 62.88 51.8H73.68C74.0112 51.8 74.28 52.0688 74.28 52.4C74.28 52.7312 74.0112 53 73.68 53Z" fill="#8E0000"/>
<path d="M72.48 32.6H59.28C58.9488 32.6 58.68 32.3312 58.68 32C58.68 31.6688 58.9488 31.4 59.28 31.4H72.48C72.8112 31.4 73.08 31.6688 73.08 32C73.08 32.3312 72.8112 32.6 72.48 32.6Z" fill="#8E0000"/>
<path d="M62.0028 22.0529C59.7185 16.0011 55.5984 10.8154 50.2196 7.22231C44.8407 3.62922 38.4726 1.80872 32.0074 2.01584C25.5421 2.22295 19.3036 4.44732 14.1658 8.37732C9.02798 12.3073 5.24821 17.7461 3.356 23.9317C1.46379 30.1173 1.55393 36.7399 3.6138 42.8717C5.67367 49.0035 9.60008 54.3374 14.843 58.1261C20.0859 61.9148 26.3826 63.9685 32.8511 63.9996C39.3196 64.0307 45.6357 62.0375 50.9148 58.2994L50.7086 58.0082C45.4903 61.7033 39.2468 63.6735 32.8528 63.6428C26.4588 63.6121 20.2345 61.582 15.052 57.8369C9.86942 54.0918 5.98821 48.8193 3.95205 42.7581C1.91589 36.6969 1.82678 30.1505 3.69721 24.0361C5.56764 17.9217 9.30391 12.5455 14.3826 8.66073C19.4613 4.77597 25.628 2.57721 32.0188 2.37247C38.4096 2.16774 44.7044 3.96729 50.0214 7.51902C55.3383 11.0708 59.411 16.1968 61.669 22.1789L62.0028 22.0529Z" fill="#8E0000"/>
<path d="M17.2969 5.57715C17.3242 5.46777 17.3447 5.3584 17.3584 5.24902C17.3721 5.13965 17.3789 5.02344 17.3789 4.90039C17.3789 4.79102 17.3652 4.68164 17.3379 4.57227C17.3242 4.44922 17.2832 4.34668 17.2148 4.26465C17.1602 4.16895 17.085 4.09375 16.9893 4.03906C16.8936 3.98438 16.7773 3.96387 16.6406 3.97754H15V3.25977L20.8242 3.21875V3.93652C20.5371 3.93652 20.2568 3.92969 19.9834 3.91602C19.7236 3.90234 19.4707 3.93652 19.2246 4.01855C18.9785 4.10059 18.7529 4.27148 18.5479 4.53125C18.3428 4.77734 18.165 5.16699 18.0146 5.7002L13.6904 22.2598V22.9775L13.3418 32.7188C13.3418 32.8828 13.3691 33.0674 13.4238 33.2725C13.4922 33.4775 13.5811 33.6689 13.6904 33.8467C13.7998 34.0244 13.9297 34.1748 14.0801 34.2979C14.2441 34.4209 14.4219 34.4824 14.6133 34.4824H15.6592L15.6182 35.2002H8.93262V34.4414L10.1221 34.4824C10.2998 34.4824 10.457 34.4277 10.5938 34.3184C10.7441 34.1953 10.8672 34.0449 10.9629 33.8672C11.0723 33.6895 11.1543 33.5049 11.209 33.3135C11.2637 33.1221 11.291 32.9512 11.291 32.8008L11.6191 22.5469C11.6191 22.0684 11.5781 21.624 11.4961 21.2139L8.31738 8.10938C8.23535 7.76758 8.12598 7.51465 7.98926 7.35059C7.85254 7.17285 7.68848 7.0498 7.49707 6.98145C7.30566 6.89941 7.08008 6.8584 6.82031 6.8584C6.57422 6.84473 6.30078 6.83789 6 6.83789L6.04102 6.30469L12.7266 6.38672V7.10449H11.4141C11.0996 7.10449 10.8672 7.21387 10.7168 7.43262C10.5664 7.65137 10.4912 7.91797 10.4912 8.23242C10.4912 8.30078 10.4912 8.36914 10.4912 8.4375C10.4912 8.49219 10.5049 8.56055 10.5322 8.64258L13.3828 20.25L17.2969 5.57715Z" fill="white"/>
<path d="M27.8783 18.3135C27.8354 18.8861 27.7796 19.5401 27.7109 20.2753C27.6568 20.9979 27.5598 21.7446 27.4197 22.5156C27.2944 23.274 27.115 24.0215 26.8817 24.7581C26.6629 25.4821 26.3544 26.1239 25.9561 26.6836C25.5723 27.2308 25.0946 27.6611 24.5227 27.9748C23.9644 28.2894 23.2831 28.4167 22.4787 28.3565C21.7561 28.3024 21.1543 28.0996 20.6733 27.7483C20.207 27.3843 19.8292 26.9379 19.5397 26.4089C19.2513 25.8664 19.0362 25.2607 18.8942 24.5919C18.7533 23.9096 18.6608 23.2241 18.6164 22.5353C18.572 21.8464 18.5602 21.1806 18.5808 20.5377C18.6161 19.8823 18.6527 19.3023 18.6905 18.7979C18.7354 18.198 18.7932 17.5169 18.864 16.7544C18.9359 15.9783 19.0428 15.1911 19.1848 14.3929C19.3268 13.5945 19.5219 12.8208 19.7699 12.0717C20.0179 11.3224 20.3417 10.6612 20.741 10.0878C21.1404 9.51448 21.6329 9.07149 22.2184 8.75886C22.8049 8.4326 23.5072 8.30009 24.3253 8.36133C25.0342 8.41441 25.6165 8.60197 26.0723 8.924C26.5417 9.24706 26.9147 9.66572 27.1916 10.18C27.4694 10.6807 27.673 11.258 27.8023 11.9121C27.9315 12.5662 28.01 13.2575 28.0377 13.9863C28.0665 14.7013 28.0596 15.4342 28.0171 16.1852C27.9755 16.9224 27.9293 17.6319 27.8783 18.3135ZM24.2307 9.07404C23.7944 9.04138 23.4151 9.1638 23.0927 9.44128C22.784 9.71979 22.5147 10.1109 22.2851 10.6147C22.0554 11.1185 21.8605 11.7071 21.7005 12.3807C21.5404 13.0542 21.4045 13.7707 21.2928 14.5301C21.1947 15.2905 21.1092 16.0656 21.0364 16.8553C20.9772 17.6461 20.92 18.4095 20.8649 19.1458C20.8251 19.6775 20.7817 20.257 20.7348 20.8841C20.7025 21.4986 20.6834 22.121 20.6773 22.7512C20.6723 23.3678 20.696 23.966 20.7486 24.5458C20.8012 25.1255 20.8992 25.647 21.0427 26.1102C21.1873 26.5597 21.3789 26.9305 21.6176 27.2226C21.8708 27.502 22.1952 27.6565 22.5905 27.6861C22.9859 27.7157 23.3302 27.6044 23.6232 27.3522C23.931 27.0872 24.1909 26.7297 24.4028 26.2794C24.6147 25.8292 24.7908 25.3077 24.9312 24.7149C25.0725 24.1085 25.1882 23.4796 25.2781 22.8283C25.3826 22.1644 25.46 21.4983 25.51 20.8303C25.5736 20.1632 25.6274 19.5366 25.6713 18.9504C25.7683 17.6552 25.847 16.4203 25.9074 15.2457C25.9817 14.0722 25.9837 13.0373 25.9138 12.1409C25.8447 11.2308 25.6797 10.5055 25.4185 9.96501C25.172 9.41186 24.7761 9.11487 24.2307 9.07404Z" fill="white"/>
<path d="M33.624 18.2627C33.8291 18.3311 34.041 18.4062 34.2598 18.4883C34.4922 18.5703 34.7246 18.6729 34.957 18.7959C35.0391 18.8232 35.1143 18.8369 35.1826 18.8369C35.2646 18.8369 35.3467 18.8369 35.4287 18.8369C35.8799 18.8369 36.29 18.748 36.6592 18.5703C37.042 18.3926 37.3701 18.1533 37.6436 17.8525C37.9307 17.5381 38.1494 17.1826 38.2998 16.7861C38.4502 16.376 38.5254 15.9453 38.5254 15.4941C38.5254 15.1797 38.4775 14.8789 38.3818 14.5918C38.2998 14.3047 38.1973 14.0244 38.0742 13.751C37.9648 13.4639 37.8623 13.1836 37.7666 12.9102C37.6846 12.623 37.6436 12.3223 37.6436 12.0078C37.6436 11.5977 37.7119 11.2148 37.8486 10.8594C37.999 10.5039 38.1973 10.1963 38.4434 9.93652C38.7031 9.66309 39.0039 9.45117 39.3457 9.30078C39.7012 9.13672 40.0908 9.05469 40.5146 9.05469L40.5967 9.48535C40.4873 9.5127 40.3438 9.55371 40.166 9.6084C40.002 9.64941 39.8379 9.73145 39.6738 9.85449C39.5098 9.96387 39.3662 10.1074 39.2432 10.2852C39.1338 10.4629 39.0791 10.6953 39.0791 10.9824C39.0791 11.4199 39.1543 11.8027 39.3047 12.1309C39.4688 12.459 39.6465 12.7871 39.8379 13.1152C40.0293 13.4434 40.2002 13.792 40.3506 14.1611C40.5146 14.5303 40.5967 14.9609 40.5967 15.4531C40.5967 16.041 40.4941 16.5811 40.2891 17.0732C40.084 17.5654 39.7969 17.9893 39.4277 18.3447C39.0723 18.7002 38.6484 18.9805 38.1562 19.1855C37.6641 19.377 37.1309 19.4727 36.5566 19.4727C36.5156 19.4727 36.4336 19.4727 36.3105 19.4727C36.2012 19.4727 36.0713 19.459 35.9209 19.4316C36.8096 20.1562 37.541 20.9766 38.1152 21.8926C38.7031 22.7949 39.1338 23.752 39.4072 24.7637C39.4893 25.0508 39.5713 25.4746 39.6533 26.0352C39.749 26.5957 39.8516 27.2109 39.9609 27.8809C40.084 28.2002 39.96 28.2588 40.124 28.9561C40.3018 29.6533 40.1992 29.6504 40.4316 30.2246C40.6641 30.7988 40.9375 31.2705 41.252 31.6396C41.5664 32.0088 41.9355 32.1934 42.3594 32.1934C42.5508 32.1934 42.708 32.1523 42.8311 32.0703C42.9541 31.9883 43.0566 31.8789 43.1387 31.7422C43.2207 31.6191 43.2891 31.4688 43.3438 31.291C43.3984 31.127 43.4531 30.9629 43.5078 30.7988L44 30.8809C43.959 31.127 43.8975 31.3662 43.8154 31.5986C43.7334 31.8311 43.6104 32.0361 43.4463 32.2139C43.2822 32.4053 43.0771 32.5557 42.8311 32.665C42.585 32.7881 42.2773 32.8496 41.9082 32.8496C41.293 32.8496 40.7598 32.6924 40.3086 32.3779C39.8574 32.0771 39.4678 31.6738 39.1396 31.168C38.8115 30.6621 38.8457 30.7266 38.627 30.084C38.4082 29.4551 38.4844 29.4443 38.3203 28.8018C38.1699 28.1455 38.04 27.8672 37.9307 27.2656C37.8213 26.6504 37.7119 26.124 37.6025 25.6865C37.4385 25.0576 37.2471 24.4219 37.0283 23.7793C36.8096 23.1367 36.543 22.5146 36.2285 21.9131C35.9277 21.3115 35.5654 20.7441 35.1416 20.2109C34.7178 19.6777 34.2119 19.2061 33.624 18.7959L33.501 25.7275C33.4873 26.1377 33.5146 26.459 33.583 26.6914C33.665 26.9102 33.7881 27.0742 33.9521 27.1836C34.1162 27.2793 34.3213 27.3408 34.5674 27.3682C34.8135 27.3818 35.1143 27.3818 35.4697 27.3682V28.0859L29.3379 28.0039V27.2861C29.584 27.2861 29.8301 27.2793 30.0762 27.2656C30.3223 27.2383 30.541 27.1836 30.7324 27.1016C30.9375 27.0059 31.1016 26.8691 31.2246 26.6914C31.3477 26.5 31.416 26.2334 31.4297 25.8916L31.6758 6.40918C31.6895 6.02637 31.6484 5.73242 31.5527 5.52734C31.4707 5.32227 31.334 5.17188 31.1426 5.07617C30.9648 4.9668 30.7461 4.90527 30.4863 4.8916C30.2266 4.86426 29.9395 4.85059 29.625 4.85059V4.15332L35.7568 4.19434V4.85059H34.998C34.5605 4.85059 34.2529 5.00781 34.0752 5.32227C33.9111 5.63672 33.8291 5.98535 33.8291 6.36816L33.624 18.2627Z" fill="white"/>
<path d="M48.5332 25.6455C48.3691 25.9326 48.1504 26.1992 47.877 26.4453C47.6035 26.6914 47.3096 26.9102 46.9951 27.1016C46.6807 27.293 46.3525 27.4434 46.0107 27.5527C45.6689 27.6621 45.3477 27.7168 45.0469 27.7168C44.582 27.7168 44.1787 27.6211 43.8369 27.4297C43.4951 27.2246 43.208 26.9648 42.9756 26.6504C42.7432 26.3223 42.5654 25.96 42.4424 25.5635C42.333 25.1533 42.2783 24.7363 42.2783 24.3125C42.2783 23.5195 42.4492 22.8223 42.791 22.2207C43.1328 21.6055 43.5566 21.0449 44.0625 20.5391C44.5684 20.0332 45.1221 19.5479 45.7236 19.083C46.3252 18.6182 46.8789 18.1191 47.3848 17.5859C47.8906 17.0527 48.3145 16.4648 48.6562 15.8223C48.998 15.1797 49.1689 14.4209 49.1689 13.5459C49.1826 13.1221 49.1416 12.6777 49.0459 12.2129C48.9502 11.748 48.7793 11.3242 48.5332 10.9414C48.3008 10.5449 48 10.2236 47.6309 9.97754C47.2617 9.73145 46.8242 9.6084 46.3184 9.6084C45.7715 9.6084 45.3203 9.73828 44.9648 9.99805C44.623 10.2578 44.3496 10.5928 44.1445 11.0029C43.9395 11.3994 43.7959 11.8506 43.7139 12.3564C43.6455 12.8486 43.6113 13.334 43.6113 13.8125C43.6113 14.0039 43.625 14.2432 43.6523 14.5303C43.6797 14.8174 43.7275 15.0977 43.7959 15.3711C43.8643 15.6309 43.9531 15.8564 44.0625 16.0479C44.1855 16.2393 44.3359 16.335 44.5137 16.335C44.7051 16.335 44.8555 16.2734 44.9648 16.1504C45.0879 16.0273 45.1768 15.8838 45.2314 15.7197C45.2998 15.542 45.334 15.3574 45.334 15.166C45.3477 14.9746 45.3477 14.8037 45.334 14.6533L46.0518 14.6123C46.0654 14.9268 46.0449 15.2344 45.9902 15.5352C45.9492 15.8223 45.8672 16.082 45.7441 16.3145C45.6211 16.5469 45.457 16.7314 45.252 16.8682C45.0469 17.0049 44.8008 17.0732 44.5137 17.0732C44.1172 17.0732 43.7822 16.9639 43.5088 16.7451C43.249 16.5127 43.0439 16.2324 42.8936 15.9043C42.7432 15.5625 42.6338 15.2002 42.5654 14.8174C42.5107 14.4346 42.4834 14.0859 42.4834 13.7715C42.4834 13.1562 42.5654 12.5547 42.7295 11.9668C42.8936 11.3789 43.1396 10.8525 43.4678 10.3877C43.7959 9.90918 44.2129 9.52637 44.7188 9.23926C45.2246 8.95215 45.8262 8.80859 46.5234 8.80859C47.3984 8.80859 48.123 9.02051 48.6973 9.44434C49.2715 9.86816 49.7295 10.4082 50.0713 11.0645C50.4131 11.707 50.6523 12.4111 50.7891 13.1768C50.9395 13.9287 51.0146 14.6396 51.0146 15.3096C51.0146 17.0459 50.9531 18.7754 50.8301 20.498C50.707 22.207 50.6455 23.9365 50.6455 25.6865C50.6455 26.0693 50.6934 26.3633 50.7891 26.5684C50.8848 26.7598 51.0215 26.8965 51.1992 26.9785C51.377 27.0605 51.5889 27.1084 51.835 27.1221C52.0947 27.1357 52.3818 27.1494 52.6963 27.1631V27.8809C51.9717 27.8535 51.2539 27.833 50.543 27.8193C49.8457 27.792 49.1484 27.7578 48.4512 27.7168L48.5332 25.6455ZM46.1748 26.4043C46.3662 26.4043 46.5713 26.3564 46.79 26.2607C47.0225 26.1514 47.248 26.0078 47.4668 25.8301C47.6855 25.6387 47.8906 25.4268 48.082 25.1943C48.2871 24.9482 48.4648 24.6816 48.6152 24.3945L49.0049 16.9912C48.6084 17.5381 48.1436 18.085 47.6104 18.6318C47.0908 19.165 46.5918 19.7119 46.1133 20.2725C45.6484 20.833 45.2451 21.4141 44.9033 22.0156C44.5752 22.6172 44.4111 23.2529 44.4111 23.9229C44.4111 24.1689 44.4453 24.4424 44.5137 24.7432C44.582 25.0303 44.6846 25.2969 44.8213 25.543C44.9717 25.7891 45.1562 25.9941 45.375 26.1582C45.6074 26.3223 45.874 26.4043 46.1748 26.4043Z" fill="white"/>
<path d="M57.249 3.29199C57.249 3.64746 57.1191 3.96191 56.8594 4.23535C56.5996 4.50879 56.292 4.64551 55.9365 4.64551C55.5811 4.64551 55.2666 4.50879 54.9932 4.23535C54.7197 3.96191 54.583 3.64746 54.583 3.29199C54.583 2.93652 54.7197 2.63574 54.9932 2.38965C55.2666 2.12988 55.5811 2 55.9365 2C56.292 2 56.5996 2.12988 56.8594 2.38965C57.1191 2.63574 57.249 2.93652 57.249 3.29199ZM58.9102 22.7334V23.4512H53.0449V22.6924H54.9727L55.0137 10.1006C55.0137 9.85449 54.9932 9.6084 54.9521 9.3623C54.9111 9.10254 54.8359 8.87012 54.7266 8.66504C54.6172 8.44629 54.4668 8.26855 54.2754 8.13184C54.0977 7.99512 53.8652 7.91992 53.5781 7.90625H52.6963V7.20898L57.1875 7.29102L57.0234 22.6924L58.9102 22.7334Z" fill="white"/>
<path d="M28.7959 34.2188V34.9365H27.4629C26.998 34.9639 26.6084 35.1621 26.2939 35.5312C25.9932 35.8867 25.8223 36.2764 25.7812 36.7002L24.0996 64.3857V64.5498C24.0859 64.7139 24.1064 64.8916 24.1611 65.083C24.2295 65.2744 24.3184 65.459 24.4277 65.6367C24.5371 65.8008 24.667 65.9443 24.8174 66.0674C24.9814 66.1768 25.1592 66.2314 25.3506 66.2314L27.0732 66.2725L27.0322 66.9902C25.9248 66.9629 24.8105 66.9424 23.6895 66.9287C22.582 66.915 21.4746 66.9219 20.3672 66.9492V66.1904L21.7002 66.2314C21.9326 66.2314 22.0967 66.1221 22.1924 65.9033C22.2881 65.6709 22.3359 65.459 22.3359 65.2676C22.3359 65.2539 22.3291 65.2197 22.3154 65.165C22.3154 65.1104 22.2949 64.9463 22.2539 64.6729C22.2129 64.3857 22.1514 63.9482 22.0693 63.3604C21.9873 62.7725 21.8643 61.9453 21.7002 60.8789C21.5498 59.7988 21.3516 58.4316 21.1055 56.7773C20.873 55.123 20.5791 53.0928 20.2236 50.6865L18.4189 66.3955V66.5186C18.3916 66.8057 18.46 67.0176 18.624 67.1543C18.8018 67.2773 19.0137 67.3662 19.2598 67.4209C19.5059 67.4756 19.7588 67.5029 20.0186 67.5029C20.292 67.4893 20.5176 67.4824 20.6953 67.4824L20.6543 68.2002L13.9688 68.1592V67.4414H15.4453C16.0605 67.4414 16.3682 67.1611 16.3682 66.6006C16.3682 66.5732 16.3613 66.5459 16.3477 66.5186C16.334 66.4775 16.3271 66.4365 16.3271 66.3955L14.4814 42.3809C14.4131 41.916 14.3311 41.5742 14.2354 41.3555C14.1533 41.123 14.0234 40.9658 13.8457 40.8838C13.668 40.8018 13.4287 40.7676 13.1279 40.7812C12.8408 40.7812 12.4648 40.7812 12 40.7812V40.0225L18.7266 40.1045V40.8223H17.4141C17.25 40.8223 17.1064 40.8701 16.9834 40.9658C16.874 41.0479 16.7852 41.1572 16.7168 41.2939C16.6484 41.4307 16.6006 41.5742 16.5732 41.7246C16.5459 41.875 16.5322 42.0186 16.5322 42.1553V42.3809L18.0498 63.4219L20.1826 44.5547H20.9414L23.5869 62.7041L25.0225 36.9463V36.6182C24.9951 36.1533 24.8926 35.8047 24.7148 35.5723C24.5371 35.3262 24.3115 35.1621 24.0381 35.0801C23.7783 34.9844 23.4775 34.9434 23.1357 34.957C22.8076 34.957 22.459 34.9639 22.0898 34.9775L22.1309 34.2188H28.7959Z" fill="white"/>
<path d="M32.8359 39.9141C32.8359 40.2695 32.7061 40.584 32.4463 40.8574C32.1865 41.1309 31.8789 41.2676 31.5234 41.2676C31.168 41.2676 30.8535 41.1309 30.5801 40.8574C30.3066 40.584 30.1699 40.2695 30.1699 39.9141C30.1699 39.5586 30.3066 39.2578 30.5801 39.0117C30.8535 38.752 31.168 38.6221 31.5234 38.6221C31.8789 38.6221 32.1865 38.752 32.4463 39.0117C32.7061 39.2578 32.8359 39.5586 32.8359 39.9141ZM34.4971 59.3555V60.0732H28.6318V59.3145H30.5596L30.6006 46.7227C30.6006 46.4766 30.5801 46.2305 30.5391 45.9844C30.498 45.7246 30.4229 45.4922 30.3135 45.2871C30.2041 45.0684 30.0537 44.8906 29.8623 44.7539C29.6846 44.6172 29.4521 44.542 29.165 44.5283H28.2832V43.8311L32.7744 43.9131L32.6104 59.3145L34.4971 59.3555Z" fill="white"/>
<path d="M38.9268 52.7314C39.1318 52.7998 39.3438 52.875 39.5625 52.957C39.7949 53.0391 40.0273 53.1416 40.2598 53.2646C40.3418 53.292 40.417 53.3057 40.4854 53.3057C40.5674 53.3057 40.6494 53.3057 40.7314 53.3057C41.1826 53.3057 41.5928 53.2168 41.9619 53.0391C42.3447 52.8613 42.6729 52.6221 42.9463 52.3213C43.2334 52.0068 43.4521 51.6514 43.6025 51.2549C43.7529 50.8447 43.8281 50.4141 43.8281 49.9629C43.8281 49.6484 43.7803 49.3477 43.6846 49.0605C43.6025 48.7734 43.5 48.4932 43.377 48.2197C43.2676 47.9326 43.165 47.6523 43.0693 47.3789C42.9873 47.0918 42.9463 46.791 42.9463 46.4766C42.9463 46.0664 43.0146 45.6836 43.1514 45.3281C43.3018 44.9727 43.5 44.665 43.7461 44.4053C44.0059 44.1318 44.3066 43.9199 44.6484 43.7695C45.0039 43.6055 45.3936 43.5234 45.8174 43.5234L45.8994 43.9541C45.79 43.9814 45.6465 44.0225 45.4688 44.0771C45.3047 44.1182 45.1406 44.2002 44.9766 44.3232C44.8125 44.4326 44.6689 44.5762 44.5459 44.7539C44.4365 44.9316 44.3818 45.1641 44.3818 45.4512C44.3818 45.8887 44.457 46.2715 44.6074 46.5996C44.7715 46.9277 44.9492 47.2559 45.1406 47.584C45.332 47.9121 45.5029 48.2607 45.6533 48.6299C45.8174 48.999 45.8994 49.4297 45.8994 49.9219C45.8994 50.5098 45.7969 51.0498 45.5918 51.542C45.3867 52.0342 45.0996 52.458 44.7305 52.8135C44.375 53.1689 43.9512 53.4492 43.459 53.6543C42.9668 53.8457 42.4336 53.9414 41.8594 53.9414C41.8184 53.9414 41.7363 53.9414 41.6133 53.9414C41.5039 53.9414 41.374 53.9277 41.2236 53.9004C42.1123 54.625 42.8438 55.4453 43.418 56.3613C44.0059 57.2637 44.4365 58.2207 44.71 59.2324C44.792 59.5195 44.874 59.9434 44.9561 60.5039C45.0518 61.0645 45.1543 61.6797 45.2637 62.3496C45.3867 63.0195 45.5303 63.7031 45.6943 64.4004C45.8721 65.0977 47.5332 71.501 47.7656 72.0752C47.998 72.6494 48.2715 73.1211 48.5859 73.4902C48.9004 73.8594 49.2695 74.0439 49.6934 74.0439C49.8848 74.0439 50.042 74.0029 50.165 73.9209C50.2881 73.8389 50.3906 73.7295 50.4727 73.5928C50.5547 73.4697 50.623 73.3193 50.6777 73.1416C50.7324 72.9775 50.7871 72.8135 50.8418 72.6494L51.334 72.7314C51.293 72.9775 51.2314 73.2168 51.1494 73.4492C51.0674 73.6816 50.9443 73.8867 50.7803 74.0645C50.6162 74.2559 50.4111 74.4062 50.165 74.5156C49.9189 74.6387 49.6113 74.7002 49.2422 74.7002C48.627 74.7002 48.0938 74.543 47.6426 74.2285C47.1914 73.9277 46.8018 73.5244 46.4736 73.0186C46.1455 72.5127 45.8721 71.9385 45.6533 71.2959C45.4346 70.667 43.7871 64.2637 43.623 63.6211C43.4727 62.9648 43.3428 62.3359 43.2334 61.7344C43.124 61.1191 43.0146 60.5928 42.9053 60.1553C42.7412 59.5264 42.5498 58.8906 42.3311 58.248C42.1123 57.6055 41.8457 56.9834 41.5312 56.3818C41.2305 55.7803 40.8682 55.2129 40.4443 54.6797C40.0205 54.1465 39.5146 53.6748 38.9268 53.2646L38.8037 60.1963C38.79 60.6064 38.8174 60.9277 38.8857 61.1602C38.9678 61.3789 39.0908 61.543 39.2549 61.6523C39.4189 61.748 39.624 61.8096 39.8701 61.8369C40.1162 61.8506 40.417 61.8506 40.7725 61.8369V62.5547L34.6406 62.4727V61.7549C34.8867 61.7549 35.1328 61.748 35.3789 61.7344C35.625 61.707 35.8438 61.6523 36.0352 61.5703C36.2402 61.4746 36.4043 61.3379 36.5273 61.1602C36.6504 60.9688 36.7188 60.7021 36.7324 60.3604L36.9785 40.8779C36.9922 40.4951 36.9512 40.2012 36.8555 39.9961C36.7734 39.791 36.6367 39.6406 36.4453 39.5449C36.2676 39.4355 36.0488 39.374 35.7891 39.3604C35.5293 39.333 35.2422 39.3193 34.9277 39.3193V38.6221L41.0596 38.6631V39.3193H40.3008C39.8633 39.3193 39.5557 39.4766 39.3779 39.791C39.2139 40.1055 39.1318 40.4541 39.1318 40.8369L38.9268 52.7314Z" fill="white"/>
<path d="M51.5801 33.9922C51.5801 34.3477 51.4502 34.6621 51.1904 34.9355C50.9307 35.209 50.623 35.3457 50.2676 35.3457C49.9121 35.3457 49.5977 35.209 49.3242 34.9355C49.0508 34.6621 48.9141 34.3477 48.9141 33.9922C48.9141 33.6367 49.0508 33.3359 49.3242 33.0898C49.5977 32.8301 49.9121 32.7002 50.2676 32.7002C50.623 32.7002 50.9307 32.8301 51.1904 33.0898C51.4502 33.3359 51.5801 33.6367 51.5801 33.9922ZM53.2412 53.4336V54.1514H47.376V53.3926H49.3037L49.3447 40.8008C49.3447 40.5547 49.3242 40.3086 49.2832 40.0625C49.2422 39.8027 49.167 39.5703 49.0576 39.3652C48.9482 39.1465 48.7979 38.9688 48.6064 38.832C48.4287 38.6953 48.1963 38.6201 47.9092 38.6064H47.0273V37.9092L51.5186 37.9912L51.3545 53.3926L53.2412 53.4336Z" fill="white"/>
<rect x="22" y="6" width="4" height="0.5" fill="white"/>
</svg>
